<?xml version="1.0" encoding="UTF-8" standalone="no"?>
<!-- Created with Inkscape (http://www.inkscape.org/) -->

<svg
   xmlns:dc="http://purl.org/dc/elements/1.1/"
   xmlns:cc="http://creativecommons.org/ns#"
   xmlns:rdf="http://www.w3.org/1999/02/22-rdf-syntax-ns#"
   xmlns:svg="http://www.w3.org/2000/svg"
   xmlns="http://www.w3.org/2000/svg"
   xmlns:sodipodi="http://sodipodi.sourceforge.net/DTD/sodipodi-0.dtd"
   xmlns:inkscape="http://www.inkscape.org/namespaces/inkscape"
   width="48"
   height="48"
   viewBox="0 0 48 47.999999"
   id="svg2"
   version="1.1"
   inkscape:version="0.91 r13725"
   sodipodi:docname="config.svg">
  <defs
     id="defs4" />
  <sodipodi:namedview
     id="base"
     pagecolor="#ffffff"
     bordercolor="#666666"
     borderopacity="1.0"
     inkscape:pageopacity="0.0"
     inkscape:pageshadow="2"
     inkscape:zoom="7.2407734"
     inkscape:cx="19.281051"
     inkscape:cy="19.983035"
     inkscape:document-units="px"
     inkscape:current-layer="layer1"
     showgrid="false"
     inkscape:window-width="1280"
     inkscape:window-height="751"
     inkscape:window-x="0"
     inkscape:window-y="1"
     inkscape:window-maximized="1"
     fit-margin-top="0"
     fit-margin-left="0"
     fit-margin-right="0"
     fit-margin-bottom="0"
     units="px" />
  <metadata
     id="metadata7">
    <rdf:RDF>
      <cc:Work
         rdf:about="">
        <dc:format>image/svg+xml</dc:format>
        <dc:type
           rdf:resource="http://purl.org/dc/dcmitype/StillImage" />
        <dc:title></dc:title>
      </cc:Work>
    </rdf:RDF>
  </metadata>
  <g
     inkscape:label="Layer 1"
     inkscape:groupmode="layer"
     id="layer1"
     transform="translate(-122.22852,-598.28125)">
    <path
       style="fill:#000000;fill-rule:evenodd;stroke:none;stroke-width:1.23670685px;stroke-linecap:butt;stroke-linejoin:miter;stroke-opacity:1"
       d="m 142.59917,598.28125 0,4.06635 a 20.269948,20.269948 0 0 0 -3.18852,0.86605 l -2.03906,-3.53168 -6.28603,3.62924 2.04019,3.53372 a 20.269948,20.269948 0 0 0 -2.35008,2.32382 l -3.51719,-2.03068 -3.62924,6.28626 3.53598,2.04155 a 20.269948,20.269948 0 0 0 -0.86266,3.18602 l -4.07404,0 0,7.25848 4.06634,0 a 20.269948,20.269948 0 0 0 0.86628,3.18874 l -3.5319,2.03906 3.62924,6.28604 3.53372,-2.04019 a 20.269948,20.269948 0 0 0 2.32404,2.35007 l -2.03068,3.5172 6.28603,3.62924 2.04155,-3.53598 a 20.269948,20.269948 0 0 0 3.18603,0.86266 l 0,4.07403 7.2587,0 0,-4.06634 a 20.269948,20.269948 0 0 0 3.18852,-0.86605 l 2.03906,3.53168 6.28603,-3.62947 -2.04019,-3.53349 a 20.269948,20.269948 0 0 0 2.35008,-2.32405 l 3.51719,2.03069 3.62924,-6.28604 -3.53598,-2.04155 a 20.269948,20.269948 0 0 0 0.86266,-3.18625 l 4.07404,0 0,-7.25848 -4.06634,0 a 20.269948,20.269948 0 0 0 -0.86606,-3.18851 l 3.53168,-2.03906 -3.62924,-6.28626 -3.53372,2.04019 a 20.269948,20.269948 0 0 0 -2.32381,-2.34985 l 2.03068,-3.5172 -6.28626,-3.62924 -2.04155,3.53598 a 20.269948,20.269948 0 0 0 -3.18603,-0.86288 l 0,-4.07382 -7.2587,0 z m 3.62924,14.50678 a 9.4931239,9.4931239 0 0 1 9.49334,9.49311 9.4931239,9.4931239 0 0 1 -9.49334,9.49334 9.4931239,9.4931239 0 0 1 -9.49312,-9.49334 9.4931239,9.4931239 0 0 1 9.49312,-9.49311 z"
       id="path3336"
       inkscape:export-xdpi="90"
       inkscape:export-ydpi="90"
       inkscape:connector-curvature="0" />
  </g>
</svg>
