<?xml version="1.0" encoding="UTF-8" standalone="no"?>
<!-- Created with Inkscape (http://www.inkscape.org/) -->

<svg
   xmlns:dc="http://purl.org/dc/elements/1.1/"
   xmlns:cc="http://creativecommons.org/ns#"
   xmlns:rdf="http://www.w3.org/1999/02/22-rdf-syntax-ns#"
   xmlns:svg="http://www.w3.org/2000/svg"
   xmlns="http://www.w3.org/2000/svg"
   xmlns:sodipodi="http://sodipodi.sourceforge.net/DTD/sodipodi-0.dtd"
   xmlns:inkscape="http://www.inkscape.org/namespaces/inkscape"
   width="96"
   height="96"
   viewBox="0 0 96 95.999998"
   id="svg2"
   version="1.1"
   inkscape:version="0.91 r13725"
   sodipodi:docname="hear.svg"
   inkscape:export-filename="/Users/user/sync/git/ponumi/ponumi/images/hear.png"
   inkscape:export-xdpi="83.4375"
   inkscape:export-ydpi="83.4375">
  <defs
     id="defs4">
    <inkscape:perspective
       id="perspective58"
       inkscape:persp3d-origin="287.25 : 20.064538 : 1"
       inkscape:vp_z="574.5 : 30.096807 : 1"
       inkscape:vp_y="0 : 1000 : 0"
       inkscape:vp_x="0 : 30.096807 : 1"
       sodipodi:type="inkscape:persp3d" />
    <inkscape:perspective
       sodipodi:type="inkscape:persp3d"
       inkscape:vp_x="0 : 526.18109 : 1"
       inkscape:vp_y="0 : 1000 : 0"
       inkscape:vp_z="744.09448 : 526.18109 : 1"
       inkscape:persp3d-origin="372.04724 : 350.78739 : 1"
       id="perspective2543" />
  </defs>
  <sodipodi:namedview
     id="base"
     pagecolor="#ffffff"
     bordercolor="#666666"
     borderopacity="1.0"
     inkscape:pageopacity="0.0"
     inkscape:pageshadow="2"
     inkscape:zoom="2.56"
     inkscape:cx="-4.5568582"
     inkscape:cy="26.390665"
     inkscape:document-units="px"
     inkscape:current-layer="layer1"
     showgrid="true"
     inkscape:window-width="1280"
     inkscape:window-height="751"
     inkscape:window-x="0"
     inkscape:window-y="1"
     inkscape:window-maximized="1"
     fit-margin-top="0"
     fit-margin-left="0"
     fit-margin-right="0"
     fit-margin-bottom="0"
     units="px"
     objecttolerance="20"
     showguides="true">
    <inkscape:grid
       type="xygrid"
       id="grid4331"
       spacingy="0.99999998"
       empspacing="1" />
  </sodipodi:namedview>
  <metadata
     id="metadata7">
    <rdf:RDF>
      <cc:Work
         rdf:about="">
        <dc:format>image/svg+xml</dc:format>
        <dc:type
           rdf:resource="http://purl.org/dc/dcmitype/StillImage" />
        <dc:title></dc:title>
      </cc:Work>
    </rdf:RDF>
  </metadata>
  <g
     inkscape:label="Layer 1"
     inkscape:groupmode="layer"
     id="layer1"
     transform="translate(-122.22852,-550.28125)">
    <path
       style="fill:#000000"
       d="m 186.37574,634.76359 c 5.57294,-2.04542 9.2779,-7.12098 8.81359,-12.07405 -0.0471,-0.50393 -1.06707,-0.85827 -2.47022,-0.85827 -2.03509,0 -2.45476,0.28021 -2.82764,1.88815 -1.16859,5.03894 -6.47066,7.65762 -11.20881,5.53602 -2.16451,-0.96923 -24.98731,-29.44896 -26.66474,-33.274 -0.6877,-1.56813 -1.1806,-4.60005 -1.21126,-7.45038 -0.0883,-8.20268 4.37932,-15.31083 11.91391,-18.95598 5.02938,-2.43315 13.18218,-2.33127 18.15214,0.22679 1.96868,1.01331 4.83785,3.24738 6.37593,4.96461 2.16584,2.41806 3.27561,3.12221 4.92084,3.12221 4.06474,0 3.10508,-3.22592 -2.48955,-8.36881 -4.29282,-3.94616 -7.69599,-5.6817 -13.24486,-6.75455 -17.76029,-3.43387 -33.76407,11.92038 -30.86489,29.61218 0.37883,2.3117 1.43161,5.63614 2.33948,7.38764 2.45342,4.73311 24.84415,32.44073 27.39488,33.90006 2.7403,1.56778 8.29167,2.11852 11.0712,1.09836 z"
       id="path4947"
       inkscape:connector-curvature="0" />
    <path
       style="fill:#000000"
       d="m 177.35047,605.80655 c 0.10932,-0.58636 2.34929,-2.48086 4.9776,-4.20999 3.45702,-2.27435 5.14407,-3.90147 6.09954,-5.883 4.83439,-10.02543 -4.42219,-21.64875 -15.37356,-19.30428 -3.5115,0.75175 -6.07312,2.37916 -8.37036,5.31778 -2.53921,3.2481 -2.63032,5.86419 -0.22941,6.58336 1.50759,0.4516 2.04492,0.22573 2.90609,-1.2216 2.21102,-3.71598 3.45204,-4.75436 6.55933,-5.48809 2.85684,-0.67462 3.49738,-0.6037 5.89452,0.65251 3.84699,2.01598 5.36773,5.66096 4.14467,9.93407 -0.83852,2.92956 -1.35124,3.48116 -5.85508,6.29891 -4.85557,3.03783 -4.94709,3.14702 -5.60791,6.68983 2.55065,9.01072 5.24337,1.07187 4.85457,0.6305 z"
       id="path4943"
       inkscape:connector-curvature="0"
       sodipodi:nodetypes="cscsssssssscc" />
    <ellipse
       style="fill:#000000;stroke:none;stroke-opacity:1"
       id="path4953"
       cx="178.2285"
       cy="616.78131"
       rx="6.731801"
       ry="6.6157022" />
  </g>
</svg>
